Coordinates
version=1
nRows=9
nColumns=24
inDegrees=yes

Units are S.I. units (second, meters, Newtons, ...)
If the header above contains a line with 'inDegrees', this indicates whether rotational values are in degrees (yes) or radians (no).

endheader
time	pelvis_tilt	pelvis_list	pelvis_rotation	pelvis_tx	pelvis_ty	pelvis_tz	hip_flexion_r	hip_adduction_r	hip_rotation_r	knee_angle_r	ankle_angle_r	subtalar_angle_r	mtp_angle_r	hip_flexion_l	hip_adduction_l	hip_rotation_l	knee_angle_l	ankle_angle_l	subtalar_angle_l	mtp_angle_l	lumbar_extension	lumbar_bending	lumbar_rotation
      0.00000000	      3.88693673	      3.77023775	     -0.22916525	     -1.33087237	      0.73726190	      0.34989033	     20.74392837	     -6.38310201	     -7.08930684	    -73.96041027	     -0.43176916	    -10.72433375	      0.00000000	      4.28119314	      5.34658837	    -13.23860674	    -15.05588165	      9.83424874	     -8.07165889	      0.00000000	      0.00000000	      0.00000000	      0.00000000
      0.00666667	      3.93976006	      3.69962655	      0.11336949	     -1.32325360	      0.73774670	      0.34962755	     21.73895197	     -6.23787927	     -7.31637941	    -73.59761245	      0.19670782	    -10.94388409	      0.00000000	      3.35224200	      5.32733297	    -13.00786714	    -14.66542689	     10.13179935	     -7.90094267	      0.00000000	      0.00000000	      0.00000000	      0.00000000
      0.01333333	      4.06282967	      3.65124815	      0.50799733	     -1.31553476	      0.73820647	      0.34926161	     22.55241280	     -6.20160671	     -7.64477840	    -73.04778436	      0.97013899	    -11.15077033	      0.00000000	      2.30909512	      5.33654270	    -12.69184201	    -14.20686081	     10.52990035	     -7.59990690	      0.00000000	      0.00000000	      0.00000000	      0.00000000
      0.02000000	      4.25588639	      3.61403443	      0.88759938	     -1.30780887	      0.73861755	      0.34892314	     23.24683853	     -6.23549206	     -8.04500207	    -72.35866177	      1.60511755	    -11.32005200	      0.00000000	      1.23954572	      5.31880136	    -12.50791490	    -13.85119657	     10.90615189	     -7.29730371	      0.00000000	      0.00000000	      0.00000000	      0.00000000
      0.02666667	      4.85092818	      3.55009802	      1.30793870	     -1.29997228	      0.73935708	      0.34846933	     23.35432459	     -6.33357158	     -8.59785398	    -71.44118379	      2.28502205	    -11.36541489	      0.00000000	     -0.29500175	      5.23458197	    -12.43353682	    -13.46303847	     11.44796417	     -6.62445235	      0.00000000	      0.00000000	      0.00000000	      0.00000000
      0.03333333	      4.81215536	      3.54323164	      1.59340954	     -1.29225844	      0.73931432	      0.34819578	     24.23549417	     -6.37804340	     -8.87062745	    -70.49396961	      2.79517962	    -11.69038236	      0.00000000	     -1.10887914	      5.24417893	    -12.35643705	    -13.10025020	     11.77633580	     -6.48014750	      0.00000000	      0.00000000	      0.00000000	      0.00000000
      0.04000000	      4.90948517	      3.55633348	      2.01060566	     -1.28460423	      0.73934013	      0.34792058	     24.84064986	     -6.45323693	     -9.22782270	    -69.34010875	      3.38258996	    -12.13932680	      0.00000000	     -2.07598223	      5.24398370	    -12.05125623	    -12.73321614	     12.21023936	     -6.16251932	      0.00000000	      0.00000000	      0.00000000	      0.00000000
      0.04666667	      5.36834064	      3.50661391	      2.50809494	     -1.27694088	      0.73968525	      0.34748857	     24.90308261	     -6.58758535	     -9.86011783	    -67.94271255	      3.78865603	    -12.59654472	      0.00000000	     -3.38548426	      5.12312755	    -11.81691014	    -12.45721780	     12.74688012	     -5.61808880	      0.00000000	      0.00000000	      0.00000000	      0.00000000
      0.05333333	      5.36395568	      3.54883961	      2.78967703	     -1.26934141	      0.73939695	      0.34728127	     25.55277580	     -6.69433339	    -10.12498096	    -66.53555303	      4.24803613	    -12.92200545	      0.00000000	     -4.21944113	      5.14527639	    -11.70481581	    -12.11756851	     13.12016534	     -5.40666383	      0.00000000	      0.00000000	      0.00000000	      0.00000000
